<svg xmlns="http://www.w3.org/2000/svg" xmlns:xlink="http://www.w3.org/1999/xlink" version="1.1" width="548.1649780273438" height="548.1649780273438" style="" xml:space="preserve" fill="#E8E8E8"><rect id="backgroundrect" width="100%" height="100%" x="0" y="0" fill="none" stroke="none"/>
	
<g class="currentLayer" style=""><title>Layer 1</title><g id="svg_1" class="">
		<path d="M402.63920159225745,201.30818870663643 c-7.263820610940456,-7.262294277548791 -16.025483056902885,-10.89445897191763 -26.291092671453953,-10.89445897191763 h-32.537866465747356 l-7.406787171959877,-19.75380675494671 c-1.8407580703496937,-4.744352959096432 -5.204288087785244,-8.836452782154083 -10.09720416367054,-12.275790691375732 c-4.890880964696407,-3.4378115758299828 -9.901833489537239,-5.1579893082380295 -15.034892685711384,-5.1579893082380295 H236.89771125798507 c-5.132550418376923,0 -10.144520498812199,1.7201777324080476 -15.035401463508606,5.1579893082380295 c-4.890880964696407,3.439337909221649 -8.25491975992918,7.531437732279301 -10.095169052481651,12.275790691375732 l-7.407804727554321,19.75380675494671 H171.82146954869313 c-10.266627170145512,0 -19.028798393905163,3.6321646943688393 -26.29261900484562,10.89445897191763 C138.26655626629872,208.57099176198244 134.63540912752433,217.33418054133654 134.63540912752433,227.5997901558876 v130.15197464078665 c0,10.26611839234829 3.6311471387743954,19.03032472729683 10.893441416323185,26.291092671453953 c7.263820610940456,7.263820610940456 16.02650061249733,10.895985305309296 26.29261900484562,10.895985305309296 h204.5230779275298 c10.265609614551067,0 19.026763282716274,-3.6321646943688393 26.291092671453953,-10.895985305309296 c7.261785499751568,-7.260767944157124 10.893950194120407,-16.024974279105663 10.893950194120407,-26.291092671453953 V227.5997901558876 C413.5316254529862,217.33418054133654 409.89946075861735,208.57099176198244 402.63920159225745,201.30818870663643 zM320.05744221394343,338.651737511158 c-12.734199486672878,12.7347082644701 -28.057569183409214,19.103588730096817 -45.974179312586784,19.103588730096817 s-33.23896227031946,-6.3688804656267175 -45.974179312586784,-19.103588730096817 c-12.735217042267323,-12.732673153281212 -19.10155361890793,-28.059604294598103 -19.10155361890793,-45.972144201397896 c0,-17.91813646256924 6.3683716878294945,-33.239979825913906 19.10155361890793,-45.97519686818123 c12.733690708875656,-12.735217042267323 28.058077961206436,-19.10155361890793 45.974179312586784,-19.10155361890793 s33.239979825913906,6.367862910032272 45.974179312586784,19.10155361890793 c12.7347082644701,12.733690708875656 19.10206239670515,28.057060405611992 19.10206239670515,45.97519686818123 C339.1595046106486,310.5921332165599 332.79265925621075,325.9175380244851 320.05744221394343,338.651737511158 z" id="svg_2"/>
		<path d="M274.08326290135665,250.8417774885893 c-11.524325884878635,0 -21.37782548367977,4.091591045260429 -29.56100757420063,12.275790691375732 c-8.183182090520859,8.183182090520859 -12.274773135781288,18.03515535593033 -12.274773135781288,29.562025129795074 c0,11.522290773689747 4.091591045260429,21.375790372490883 12.274773135781288,29.55897246301174 c8.183182090520859,8.181655757129192 18.036172911524773,12.273246802389622 29.56100757420063,12.273246802389622 c11.522799551486969,0 21.37731670588255,-4.091591045260429 29.560498796403408,-12.273246802389622 c8.183182090520859,-8.183182090520859 12.27528191357851,-18.036172911524773 12.27528191357851,-29.55897246301174 c0,-11.526360996067524 -4.0920998230576515,-21.378334261476994 -12.27528191357851,-29.562025129795074 C295.4610883850364,254.93387731164694 285.6060624528436,250.8417774885893 274.08326290135665,250.8417774885893 z" id="svg_3"/>
	</g></g></svg>