<svg width="157" height="36" viewBox="0 0 157 36" fill="none" xmlns="http://www.w3.org/2000/svg">
    <path d="M55.733 23.328v-7.316h4.318V13.35H48.269v2.662h4.319v7.316h3.145z" fill="#333"/>
    <path d="M64.349 19.157V13.35h-3.04v9.978h2.684l5.24-5.806v5.806h3.04V13.35H69.59l-5.241 5.807z" fill="#333"/>
    <path d="M82.5 19.618v3.71h3.039V13.35h-3.04v3.647h-4.884V13.35h-3.04v9.978h3.04v-3.71h4.884z" fill="#333"/>
    <path d="M94.004 23.328c.692 0 1.32-.063 1.908-.23 1.572-.44 2.6-1.72 2.6-3.46 0-1.655-.881-2.808-2.286-3.332-.67-.252-1.467-.273-2.222-.273h-3.123V13.35h-3.04v9.978h6.163zm-.524-4.947c.42 0 .818 0 1.174.126.503.167.797.587.797 1.09 0 .524-.294.964-.776 1.174-.335.147-.67.147-1.195.147h-2.6V18.38h2.6z" fill="#333"/>
    <path d="M103.961 19.555l3.627 3.773h4.046l-5.052-5.198 4.863-4.78h-3.815l-3.669 3.752h-.838V13.35h-3.04v9.978h3.04v-3.773h.838z" fill="#333"/>
    <path d="M117.889 13.077c-4.088 0-6.541 2.306-6.541 5.283 0 2.977 2.453 5.283 6.541 5.283 4.066 0 6.519-2.306 6.519-5.283 0-2.977-2.453-5.283-6.519-5.283zm0 8.134c-2.034 0-3.334-1.216-3.334-2.851s1.3-2.83 3.334-2.83c2.012 0 3.333 1.195 3.333 2.83s-1.321 2.851-3.333 2.851z" fill="#333"/>
    <path d="M134.531 12.784h-3.039v1.006c-3.816.084-6.101 1.698-6.101 4.55 0 2.85 2.285 4.338 6.101 4.422v1.007h3.039v-1.007c3.837-.084 6.122-1.572 6.122-4.423 0-2.85-2.285-4.465-6.122-4.549v-1.006zm-3.039 7.84c-2.097-.084-3.019-.943-3.019-2.285s.922-2.306 3.019-2.39v4.675zm3.039-4.675c2.118.084 3.019 1.048 3.019 2.39s-.901 2.201-3.019 2.285V15.95z" fill="#333"/>
    <path d="M150.766 12.784h-3.04v1.006c-3.815.084-6.1 1.698-6.1 4.55 0 2.85 2.285 4.338 6.1 4.422v1.007h3.04v-1.007c3.836-.084 6.121-1.572 6.121-4.423 0-2.85-2.285-4.465-6.121-4.549v-1.006zm-3.04 7.84c-2.096-.084-3.019-.943-3.019-2.285s.923-2.306 3.019-2.39v4.675zm3.04-4.675c2.117.084 3.018 1.048 3.018 2.39s-.901 2.201-3.018 2.285V15.95z" fill="#333"/>
    <path d="M40.036 16.84l.527-1.675-1.742.054c-.148 0-1.217-.03-2.255-.778.077.007.155.018.234.018 1.068 0 2.101-.64 2.515-1.553l.75-1.651c-.94.012-1.798-.106-1.798-.106-.008-.001-.684-.087-1.467-.882-.562-.57-1.257-.872-2.01-.872-.329 0-.623.06-.877.14.04-.135.078-.27.1-.411.239-1.546-.763-2.725-.763-2.723l-1.31-1.612-.81 1.894c-.004.006-.209.45-.576.666-.11-.556-.382-1.182-.963-1.78-1.096-1.128-2.43-1.296-3.128-1.296-.323 0-.554.035-.61.044l-1.58.31c.09-.352.284-.963.64-1.513l.872-1.351-2.196.248-.7-1.476-1.353.694L20.284 0l-1.248 1.229-1.359-.694-.697 1.476-2.195-.248.874 1.35c.356.551.55 1.16.64 1.512l-1.51-.296-.05-.009a3.995 3.995 0 0 0-.63-.047c-.698 0-2.032.17-3.125 1.296-.582.597-.854 1.224-.966 1.78-.364-.214-.568-.651-.568-.651l-.813-1.905-1.33 1.623c-.163.21-.966 1.318-.747 2.711.022.139.059.274.098.409a2.886 2.886 0 0 0-.875-.14c-.753 0-1.448.303-2.01.872-.78.792-1.454.881-1.448.881 0 0-.712.127-1.814.107l.745 1.651c.415.915 1.45 1.553 2.516 1.553.08 0 .158-.01.237-.018-1.035.748-2.105.778-2.234.78L0 15.165l.537 1.673c.27.863 1.173 2.292 2.903 2.446-.188.784-.606 1.662-1.522 2.04l-1.322.541.721 1.247c.407.673 1.361 1.46 2.72 1.46.295-.002.579-.03.852-.087.07.307.158.615.261.92.405 1.197.056 2.032.052 2.04l-.653 1.36 1.457.381c.018.006.458.125 1.009.125a3.117 3.117 0 0 0 1.202-.234c.188.337.417.643.684.917.933.952 2.255 1.434 3.93 1.434h.006l1.196-.015-2.47 1.02 1.875.9c.681.33 1.49.72 2.312 1.019l-.233.636.646.293c.058.025 1.3.579 3.367.696 0 0 .5.023.774.023.275 0 .768-.024.768-.024 2.053-.12 3.287-.668 3.344-.695l.648-.294-.237-.638c.847-.308 1.685-.713 2.337-1.03l1.84-.888-2.462-1.02 1.2.014c1.677 0 3-.482 3.932-1.435.265-.273.495-.58.684-.916a3.09 3.09 0 0 0 1.202.234c.542 0 .986-.119.998-.122l1.463-.384-.637-1.333c-.015-.035-.364-.869.04-2.068.104-.306.19-.613.26-.92.275.058.562.088.858.088a3.18 3.18 0 0 0 2.722-1.473l.713-1.234-1.322-.54c-.918-.378-1.334-1.257-1.52-2.04 1.705-.144 2.622-1.574 2.901-2.442zM16.413 5.202l-.018.005.015-.02.003.015z" fill="#fff"/>
    <path d="M20.286 5.128c-1.4.001-2.448.457-2.677.992l2.677 1.05 2.676-1.05c-.227-.535-1.276-.99-2.676-.992z" fill="#fff"/>
    <path d="M20.314 32.911h-.053c-.848.006-2.015-.167-2.578-.33l-.676 1.82c.446.158 1.957.46 3.282.46 1.321 0 2.834-.303 3.279-.46l-.676-1.82c-.564.164-1.73.336-2.578.33z" fill="#fff"/>
    <path d="M25.435 31.102c-.504.283-1.628.709-2.282.906l.55 1.503a13.751 13.751 0 0 0 2.536-.939l-1.14-.377.336-1.093z" fill="#fff"/>
    <path d="M15.139 31.102l.337 1.093-1.141.377c.689.344 1.528.665 2.535.94l.55-1.504c-.651-.197-1.777-.624-2.281-.906z" fill="#fff"/>
    <path d="M20.288 3.39c1.054 0 2.089.25 2.884.69.073-.243.175-.537.313-.845l-.3.037-.316.033-.134-.285-.402-.845-.733.38-.285.145-.228-.223-.796-.784-.796.784-.227.223-.285-.145-.738-.38-.397.845-.137.285-.316-.033-.3-.037c.138.31.238.602.313.845.796-.44 1.828-.69 2.88-.69z" fill="#fff"/>
    <path d="M36.387 13.148c.137.047.276.068.414.068.597 0 1.173-.383 1.372-.822 0 0-1.094-.066-2.27-1.253-.375-.384-.77-.499-1.11-.499-.529 0-.925.278-.925.278 1.42.75 1.71 1.957 2.519 2.228z" fill="#fff"/>
    <path d="M3.77 13.216c.138 0 .278-.021.411-.068.812-.271 1.103-1.477 2.523-2.228 0 0-.397-.278-.922-.278-.342 0-.738.115-1.114.5C3.494 12.327 2.4 12.393 2.4 12.393c.195.44.774.822 1.37.822z" fill="#fff"/>
    <path d="M36.771 18.049l.071.001c1.489 0 1.994-1.584 1.994-1.584h-.029c-.273 0-2.487-.064-4.051-2.04-1.03-1.3-1.874-2.443-3.542-2.893l-.163-.028-.037-.166c-.046-.253.129-.49.525-.747 2.3-1.497.739-3.406.739-3.406s-.657 1.528-2.127 1.528l-.11-.002c-.166-.009-.327-.015-.49-.05l-.271-.052s.418-1.133-.592-2.173c-.762-.786-1.689-.918-2.225-.918-.27 0-.441.034-.441.034.508.66.875 1.755.288 2.431-.507.58-1.745.61-1.745 1.475 0 .366.345.794.964 1.179 1.862 1.165 3.71 2.71 4.477 4.783.961 2.584-.12 4.299-1.666 5.282 0 0 .485.443 1.187.499.143.013.282.02.413.02 1.482 0 2.248-.691 2.248-.691s-.125.954-.898 1.84c-.711.82-1.646 1.3-3.071 1.322 0 0-.046.657.586 1.226.403.358 1.337.476 1.337.476s-1.747.352-1.94 2.915c-.104 1.389-.46 1.871-.46 1.871h.03c4.054 0 3.95-3.454 3.95-3.454s.281 1.022 1.412 1.289c.136.036.282.05.422.05.364 0 .68-.085.68-.085s-.592-1.24-.005-2.976c.487-1.44.408-2.508.408-2.508s.546.82 1.9.828h.014c1.127 0 1.619-.85 1.619-.85-2.703-1.113-2.436-4.711-2.436-4.711s.35.26 1.035.285zm-.813 3.757c-1.099-.538-1.794-1.967-1.962-2.483-.182 2.835-1.575 4.802-3.204 6.696-.845.982-1.139 1.937-1.139 1.937s.162-1.082.894-1.962c1.519-1.814 2.962-4.071 3.07-6.681.074-1.822-.398-3.3-1.134-4.517.411 1.268.353 2.822-1.044 4.27 0 0 2.781-3.312-1.108-6.708-1.557-1.292-3.26-2.09-4.136-2.655 3.168 1.027 4.714-.104 4.714-.104-1.012.871-2.321.856-3.133.731.22.107.45.219.696.35 2.671 1.441 5.072 3.813 5.481 7.099v-.026c.622 3.226 2.005 4.053 2.005 4.053z" fill="#fff"/>
    <path d="M10.428 25.395s.933-.116 1.336-.476c.63-.569.586-1.226.586-1.226-1.426-.02-2.36-.502-3.076-1.32-.766-.886-.893-1.84-.893-1.84s.766.69 2.247.69c.133 0 .271-.006.414-.02.703-.055 1.188-.499 1.188-.499-1.545-.983-2.628-2.699-1.669-5.283.77-2.07 2.616-3.618 4.478-4.783.619-.385.963-.811.963-1.18 0-.865-1.236-.894-1.743-1.474-.587-.676-.219-1.772.288-2.43 0 0-.168-.035-.44-.035-.534 0-1.461.132-2.223.918-1.013 1.04-.593 2.173-.593 2.173l-.272.052c-.162.035-.324.041-.49.05l-.108.002c-1.473 0-2.127-1.526-2.127-1.526s-1.561 1.909.738 3.406c.396.256.569.493.523.746l-.036.166-.167.029c-1.665.45-2.51 1.592-3.54 2.892-1.562 1.974-3.773 2.039-4.049 2.039h-.03s.505 1.584 1.994 1.584l.071-.001c.684-.024 1.036-.285 1.036-.285s.264 3.596-2.435 4.712c0 0 .492.849 1.62.849h.013c1.355-.008 1.9-.828 1.9-.828s-.08 1.068.406 2.508c.587 1.735-.001 2.976-.001 2.976s.315.085.678.085c.141 0 .285-.014.42-.05 1.13-.267 1.413-1.29 1.413-1.29s-.103 3.455 3.95 3.455h.028s-.355-.482-.458-1.871c-.194-2.563-1.94-2.915-1.94-2.915zm-.651.624c-1.629-1.893-3.02-3.861-3.204-6.696-.168.514-.86 1.945-1.959 2.483 0 0 1.381-.827 2.002-4.053v.026c.411-3.284 2.81-5.658 5.482-7.099.244-.133.477-.244.695-.35-.812.125-2.121.14-3.133-.731 0 0 1.546 1.13 4.713.104-.877.565-2.578 1.363-4.135 2.655-3.89 3.396-1.108 6.709-1.108 6.709-1.399-1.45-1.455-3.003-1.044-4.27-.737 1.218-1.208 2.694-1.132 4.515.106 2.61 1.55 4.868 3.065 6.682.733.879.899 1.962.899 1.962S10.62 27 9.777 26.018z" fill="#fff"/>
    <path d="M17.29 12.765a3.973 3.973 0 0 1 .41.522c.013.016.025.036.039.055.068.103.132.209.195.317.585 1.003 1.52 1.601 2.35 1.603.832-.002 1.765-.6 2.353-1.603.065-.111.13-.22.198-.321.011-.015.022-.029.03-.044.059-.086.12-.17.183-.252l.038-.048c.065-.08.132-.158.2-.23.012-.012.021-.023.032-.032a2.427 2.427 0 0 1 1.117-.662l-.206-.12h-.013l-.822-.474-.845-.481-2.258 1.221-.006-.004-.005.004-2.26-1.221-.843.48-.824.474h-.009l-.21.12c.467.128.82.355 1.12.658.013.012.022.026.035.038zm2.081-.098h1.911v.651c-.225-.272-.662-.217-.662-.217v.94s.017.461.18.662h-.946c.165-.2.18-.662.18-.662v-.94s-.435-.056-.663.217v-.651z" fill="#fff"/>
    <path d="M20.09 11.404V7.59l-2.444-.823.645 3.696 1.798.94zm-.526-2.877v.612l-.118-.054c-.006-.005-.18-.044-.483-.282-.5-.386-.51-.742-.51-.742l1.111.466z" fill="#fff"/>
    <path d="M22.28 10.463l.643-3.696-2.442.823v3.814l1.8-.941zm-1.274-1.936l1.11-.465s-.008.356-.51.742c-.302.238-.477.278-.483.282l-.118.054v-.613h.001z" fill="#fff"/>
    <path d="M16.633 20.244c.239.086.527.104.674.104.006-.018.014-.04.021-.068.014-.044.026-.086.035-.134.041-.211.056-.45.06-.605a.844.844 0 0 1-.32-.336c-.092-.19-.22-.277-.41-.277-.246 0-.51.146-.623.215-.09.526.3 1.005.563 1.101z" fill="#fff"/>
    <path d="M22.039 18.22c-.454.49-1.342 1.344-1.386 1.387l-.053.055-2.806-.044a2.812 2.812 0 0 1-.09.683l-.023.089 3.338.595c.347-.24 1.303-.934 1.674-1.206-.27-.392-.296-.856-.236-1.183a1.697 1.697 0 0 1-.418-.376z" fill="#fff"/>
    <path d="M22.42 14.867c-.646.637-1.267.873-1.82.927-.101.01-.203.016-.306.016H20.281a2.924 2.924 0 0 1-.607-.063c-.037.143-.082.444.048.727.117.258.355.45.703.576l.116.045.002.125c0 .038.027.85.918 1.074.146-.15.278-.284.375-.395-.182-.425-.087-.86.177-1.072-.012.045-.127 1.11.732 1.505l.14.066-.042.15c-.013.045-.3 1.074.74 1.457l.183.07-.082.178c-.018.039-.426.974.534 1.505h2.084v-1.644c-.741-.09-1.055-.682-1.136-1.1-.344-.06-.611-.207-.793-.449-.437-.571-.06-1.094-.056-1.123-.002.005 0 .562.346.906.171.166.375.294.683.323l.151.014.014.153c.003.033.086.787.792.906l-.002-3.356c0-.52.154-1.043.337-1.526H22.42v.005z" fill="#fff"/>
    <path d="M16.813 16.407l-.056 2.138.244.036.598-2.05-.304-.631-.482.507z" fill="#fff"/>
    <path d="M23.404 26.21c.018 0 .04.003.059.007.372.106.466 1.439 1.118 1.558a.826.826 0 0 0 .175.017c.188 0 .3-.08.421-.222 0 0-.327-.513-.573-.858-.326-.453-.58-1-1.187-1-.013 0-.032 0-.047.002a.611.611 0 0 0-.323.107 1.262 1.262 0 0 0-.683-.207c-.38 0-.677.174-.824.174h-.006l-1.356-.133c-.213-.02-.38-.232-.44-.315l-.023-.037c0-.036 0-.073-.003-.107-.046-1.102-.904-1.574-1.21-1.581 0 0 .037-.21-.046-.29l-.3.36-.981-.49.7.813-.594.662c-.074.076-.065.178-.035.22l.257.225.324-.196c.017-.012.046-.015.082-.015.09 0 .225.023.346.023.132 0 .248-.03.261-.153-.04.409-.422 1.12-.171 1.677l.185.42-1.199-.171-.561.942c-.173.314-.2.653-.034.837l.21.26s.294-.31.36-.513l-.095-.104c-.08-.088-.076-.166-.027-.261l.352-.58 1.416.331.074-.127c.096-.158.234-.206.385-.206.063 0 .126.007.193.018.263.051.695.12 1.128.12.474 0 .945-.084 1.195-.363.513.756 1.553.876 1.47 1.26l-.272 1.293c.18-.008.355-.02.52-.042l.26-1.347c.028-.146.055-.344.055-.344-.1-.1-.342-.315-.479-.574-.184-.35-.083-.532-.255-.988.006.003.058-.102.178-.102zm-5.296-1.891a.12.12 0 0 1-.117-.13.122.122 0 0 1 .13-.113c.07.003.12.064.117.13a.124.124 0 0 1-.13.113z" fill="#fff"/>
    <path d="M16.175 27.436s.469-.192.511-.329l-.062-.155c-.044-.101-.038-.212.047-.272l.507-.348.847.161s-.153-.19-.138-.445l-.808-.17-.761.462a.733.733 0 0 0-.243.874l.1.222z" fill="#fff"/>
    <path d="M22.159 29.629c.151-.006.318-.01.502-.01 0 0 .435-1.264.46-1.305a10.573 10.573 0 0 1-.947-.496c.129.191.443.411.38.58l-.395 1.23z" fill="#fff"/>
    <path d="M26.304 22.123H14.267v4.5c0 1.84 1.34 2.991 3.317 2.991 1.652 0 2.088.064 2.702.67.424-.42.774-.576 1.493-.635l.017-.07.38-1.165-.642-.727c-.246.082-.453.095-.8.095-.357 0-.759-.04-1.194-.122a.531.531 0 0 0-.126-.013c-.053 0-.058.004-.072.03l-.075.123-.139.227-.259-.06-1.155-.269-.157.26.024.027.14.153-.061.2c-.085.263-.361.57-.445.654l-.288.307-.263-.33-.197-.246c-.208-.23-.256-.585-.14-.956a.018.018 0 0 1-.012.005l-.326.134-.147-.317-.103-.224a1.089 1.089 0 0 1 .365-1.321l.93-.522.885.174c.021-.085.053-.386.08-.463-.018-.002-.034-.006-.051-.006l-.51.188-.491-.338s-.193-.184-.019-.368l.477-.716-1.207-1.505 1.855.757.123-.152.25-.297.284.268c.08.077.126.172.148.267.512.198 1.427.781 1.507 1.73l-.287.114v.008c.066.077.12.108.137.111l1.323.13c.034-.006.076-.02.123-.034.164-.056.411-.136.704-.136.238 0 .469.054.69.157.082-.03.183-.053.298-.06l.064-.002c.708 0 1.06.526 1.343.945.047.073.094.142.142.21.247.347.57.855.584.876l.146.226-.179.207c-.138.158-.344.343-.7.343a1.277 1.277 0 0 1-.45-.087c-.01.07-.024.152-.038.223l-.232 1.203c1.388-.339 2.27-1.38 2.27-2.87l.001-4.502z" fill="#FFDD2D"/>
    <path d="M14.267 21.762h9.36c-.467-.48-.46-1.088-.34-1.483a1.597 1.597 0 0 1-.35-.227c-.365.268-1.482 1.076-1.774 1.279l-.062.042-3.673-.66h-.075c-.088 0-.217-.004-.358-.02a.357.357 0 0 1-.64.126.346.346 0 0 1-.064-.268l.014-.078c-.38-.266-.729-.858-.574-1.483l.015-.066.053-.038c.008-.006.072-.048.166-.102l-.267-.041a.184.184 0 0 1-.152-.208.18.18 0 0 1 .21-.15l.635.099.058-2.226.947-.995.59 1.235-.624 2.14.562.088a.182.182 0 0 1 .152.209.181.181 0 0 1-.181.15l-.029-.001-.457-.074c.007.013.016.021.022.036.048.1.156.172.22.202l2.8.044c.12-.115.413-.401.715-.704-.688-.26-.939-.85-.981-1.243-.386-.163-.651-.407-.798-.725-.18-.394-.116-.787-.069-.979-.373-.135-.766-.383-1.167-.778h-4.218c.18.483.334 1.006.334 1.526v5.373z" fill="#FFDD2D"/>
    <path d="M18.123 24.076a.121.121 0 0 0-.13.113.12.12 0 0 0 .116.13.123.123 0 0 0 .132-.113c0-.066-.048-.128-.118-.13z" fill="#333"/>
    <path d="M26.288 32.237l-.694-.264.191-.712.211-.777s-1.229.662-2.96 1.16c-.492.14-.864.204-.864.204v.527s-.925.16-1.861.16h-.053c-.937 0-1.862-.16-1.862-.16v-.527s-.374-.064-.864-.204c-1.731-.498-2.959-1.16-2.959-1.16l.208.777.196.712-.695.264-.77.286c.884.424 2.108 1.042 3.23 1.347l-.264.717s1.421.644 3.79.65v.002h.034v-.002c2.371-.006 3.791-.65 3.791-.65l-.265-.717c1.121-.305 2.349-.923 3.229-1.347l-.77-.286zm-11.954.334l1.14-.377-.336-1.093c.502.284 1.63.709 2.282.906l-.55 1.504a14.039 14.039 0 0 1-2.536-.94zm5.952 2.29c-1.324 0-2.837-.304-3.282-.46l.677-1.82c.561.162 1.73.336 2.578.33H20.312c.848.006 2.014-.168 2.578-.33l.675 1.82c-.444.158-1.956.46-3.279.46zm3.415-1.35l-.55-1.504c.654-.197 1.779-.622 2.282-.906l-.335 1.093 1.14.377c-.69.343-1.525.664-2.537.94z" fill="#333"/>
    <path d="M20.285 3.828c1.41 0 2.54.464 3.163.96 0 0 .185-1.108.818-2.086l-1.136.128-.595-1.256-1.143.585-1.107-1.089-1.105 1.089-1.144-.585-.594 1.256-1.136-.128c.633.978.818 2.086.818 2.086.625-.496 1.75-.96 3.16-.96zM17.39 3.27l.316.033.136-.285.398-.844.737.378.285.145.228-.223.795-.784.797.784.227.223.286-.145.732-.378.402.844.134.285.316-.033.3-.036c-.138.309-.24.601-.313.844-.795-.44-1.83-.69-2.884-.69-1.05 0-2.083.25-2.882.69a7.231 7.231 0 0 0-.312-.844l.302.036z" fill="#333"/>
    <path d="M36.841 18.535c1.826 0 2.436-1.846 2.462-1.924l.203-.65-.684.02h-.004c-.24 0-2.254-.052-3.682-1.855L35 13.958c-.933-1.179-1.818-2.3-3.4-2.81.046-.04.112-.092.201-.15.84-.548 1.328-1.215 1.45-1.988.18-1.164-.567-2.092-.6-2.13l-.508-.624-.318.74c-.02.047-.555 1.233-1.678 1.233h-.083c-.078-.005-.15-.008-.223-.014.04-.53-.058-1.348-.805-2.116-.896-.924-1.998-1.063-2.575-1.063-.308 0-.512.038-.534.041l-.768.15.474.62c.372.479.709 1.36.31 1.822-.128.146-.39.266-.642.385-.518.236-1.223.565-1.223 1.403 0 .543.423 1.11 1.19 1.593 2.274 1.42 3.676 2.902 4.281 4.538.936 2.517-.285 3.953-1.472 4.708l-.532.34.466.426c.062.054.632.553 1.475.626.159.01.312.02.455.02.54 0 1-.085 1.373-.198-.103.18-.23.362-.388.546-.679.78-1.513 1.136-2.713 1.155l-.447.007-.034.445c-.005.089-.038.914.747 1.615.12.108.266.197.418.271-.533.477-1.075 1.306-1.18 2.728-.087 1.187-.372 1.625-.375 1.63l-.494.748.891.012c1.472 0 2.6-.404 3.38-1.203a3.81 3.81 0 0 0 .882-1.481 2.397 2.397 0 0 0 1.554.567c.416 0 .763-.088.803-.097l.569-.15-.252-.528c-.018-.042-.493-1.1.018-2.612.22-.653.332-1.238.387-1.693.358.185.838.34 1.458.34 1.408 0 2.03-1.044 2.058-1.088l.278-.48-.515-.21c-1.678-.693-2.05-2.552-2.124-3.56.152.03.325.057.52.063h.085zm1.331 3.941s-.492.85-1.619.85h-.014c-1.353-.008-1.9-.829-1.9-.829s.08 1.068-.41 2.508c-.586 1.736.005 2.976.005 2.976s-.315.085-.68.085c-.139 0-.285-.014-.421-.05-1.13-.267-1.413-1.29-1.413-1.29s.105 3.455-3.948 3.455h-.032s.357-.482.463-1.87c.193-2.564 1.94-2.916 1.94-2.916s-.933-.116-1.336-.476c-.631-.569-.587-1.226-.587-1.226 1.426-.02 2.36-.502 3.07-1.32.772-.887.899-1.842.899-1.842s-.766.69-2.249.69c-.13 0-.27-.005-.413-.019-.7-.056-1.186-.499-1.186-.499 1.543-.983 2.627-2.699 1.666-5.284-.77-2.07-2.617-3.617-4.478-4.782-.619-.385-.963-.812-.963-1.18 0-.865 1.238-.892 1.746-1.474.586-.676.219-1.772-.29-2.43 0 0 .172-.036.442-.036.536 0 1.463.135 2.224.919 1.013 1.04.592 2.173.592 2.173l.272.052c.162.035.323.041.49.049l.11.001c1.47 0 2.127-1.527 2.127-1.527s1.562 1.91-.738 3.406c-.396.256-.57.493-.525.746l.037.166.163.029c1.668.45 2.512 1.592 3.542 2.892 1.564 1.977 3.778 2.04 4.051 2.04h.03s-.506 1.585-1.995 1.585c-.024 0-.045 0-.071-.002-.684-.024-1.035-.285-1.035-.285s-.268 3.6 2.434 4.715z" fill="#333"/>
    <path d="M33.635 11.346c.68.36 1.077.842 1.424 1.27.342.418.667.821 1.173.988.18.062.372.09.566.09.762 0 1.527-.462 1.817-1.103l.291-.642-.706-.043c-.033-.001-.94-.082-1.95-1.11-.417-.42-.919-.642-1.46-.642-.662 0-1.152.33-1.207.362l-.65.454.702.376zm1.156-.706c.34 0 .736.114 1.11.499 1.177 1.187 2.27 1.253 2.27 1.253-.198.437-.775.822-1.371.822a1.28 1.28 0 0 1-.414-.068c-.81-.272-1.099-1.478-2.52-2.229 0 0 .397-.277.925-.277z" fill="#333"/>
    <path d="M33.955 17.754v.024c-.41-3.284-2.81-5.656-5.48-7.1a20.046 20.046 0 0 0-.697-.349c.813.125 2.123.14 3.134-.731 0 0-1.547 1.13-4.715.104.877.565 2.581 1.363 4.136 2.655 3.89 3.396 1.107 6.709 1.107 6.709 1.397-1.45 1.455-3.003 1.043-4.27.736 1.216 1.207 2.694 1.134 4.515-.108 2.61-1.55 4.868-3.07 6.681-.73.881-.893 1.962-.893 1.962s.294-.954 1.14-1.936c1.627-1.894 3.019-3.861 3.2-6.696.17.514.863 1.945 1.963 2.483.003.002-1.38-.826-2.002-4.051z" fill="#333"/>
    <path d="M13.23 29.907c-.002-.005-.285-.443-.376-1.63-.106-1.422-.646-2.251-1.18-2.728.155-.072.297-.161.417-.271.785-.701.751-1.526.747-1.615l-.03-.445-.45-.007c-1.197-.02-2.033-.376-2.711-1.155a3.573 3.573 0 0 1-.389-.546c.373.113.83.197 1.372.197.146 0 .296-.009.455-.02a2.698 2.698 0 0 0 1.476-.625l.466-.425-.532-.341c-1.191-.757-2.408-2.192-1.474-4.708.606-1.636 2.006-3.118 4.282-4.538.768-.483 1.188-1.05 1.188-1.593 0-.838-.704-1.168-1.22-1.403-.253-.12-.515-.239-.643-.385-.4-.46-.062-1.343.308-1.821l.477-.62-.771-.15c-.023-.004-.225-.042-.534-.042-.577 0-1.676.14-2.574 1.063-.748.77-.846 1.588-.809 2.116-.072.006-.145.009-.221.014h-.082c-1.126 0-1.658-1.186-1.68-1.232l-.317-.74-.513.624c-.029.037-.778.966-.596 2.129.121.773.61 1.44 1.449 1.989.091.057.155.108.2.149-1.58.51-2.462 1.633-3.396 2.812l-.135.167c-1.426 1.804-3.444 1.856-3.685 1.856l-.688-.02.21.65c.024.078.632 1.923 2.46 1.923l.087-.003a3.21 3.21 0 0 0 .52-.062c-.075 1.006-.447 2.865-2.127 3.559l-.512.211.277.48c.028.043.65 1.088 2.06 1.088a3.145 3.145 0 0 0 1.456-.34c.055.455.167 1.04.387 1.693.511 1.51.035 2.57.017 2.611l-.252.528.57.15c.038.01.389.097.803.097a2.376 2.376 0 0 0 1.554-.567c.155.474.42 1.008.88 1.481.783.8 1.909 1.203 3.38 1.203l.893-.012-.495-.746zm-.432.276c-4.053 0-3.95-3.455-3.95-3.455s-.282 1.023-1.412 1.29c-.135.036-.28.05-.42.05-.365 0-.679-.085-.679-.085s.589-1.241.002-2.977c-.486-1.44-.407-2.507-.407-2.507s-.545.82-1.9.828H4.02c-1.128 0-1.62-.85-1.62-.85 2.702-1.114 2.436-4.711 2.436-4.711s-.35.26-1.036.285l-.072.001c-1.49 0-1.994-1.584-1.994-1.584h.03c.275 0 2.486-.064 4.05-2.04 1.031-1.3 1.876-2.442 3.54-2.893l.168-.028.036-.166c.046-.253-.127-.49-.523-.747-2.3-1.497-.738-3.406-.738-3.406s.654 1.526 2.128 1.526l.107-.001c.166-.01.33-.015.49-.05l.272-.053s-.42-1.132.593-2.173c.762-.785 1.69-.918 2.223-.918.272 0 .44.035.44.035-.506.66-.874 1.755-.288 2.43.507.58 1.744.61 1.744 1.475 0 .366-.345.795-.964 1.18-1.862 1.165-3.71 2.712-4.478 4.782-.959 2.585.123 4.299 1.67 5.284 0 0-.486.443-1.189.499-.143.013-.28.02-.414.02-1.481 0-2.247-.691-2.247-.691s.127.954.893 1.84c.717.82 1.65 1.302 3.076 1.322 0 0 .046.657-.586 1.226-.405.358-1.336.476-1.336.476s1.748.351 1.939 2.915c.104 1.388.458 1.87.458 1.87h-.029z" fill="#333"/>
    <path d="M3.77 13.697c.195 0 .387-.029.567-.09.51-.168.833-.57 1.175-.988.349-.428.742-.911 1.423-1.271l.7-.374-.65-.454c-.055-.035-.543-.362-1.203-.362-.544 0-1.047.22-1.462.642-1.01 1.026-1.916 1.108-1.95 1.11l-.705.04.29.645c.291.637 1.054 1.102 1.815 1.102zm.898-2.556c.376-.384.772-.5 1.114-.5.525 0 .922.278.922.278-1.42.753-1.711 1.958-2.523 2.229a1.245 1.245 0 0 1-.411.068c-.597 0-1.173-.383-1.37-.822 0-.002 1.092-.068 2.268-1.253z" fill="#333"/>
    <path d="M6.956 19.313c-.076-1.822.394-3.3 1.132-4.516-.411 1.268-.355 2.821 1.044 4.27 0 0-2.783-3.313 1.107-6.708 1.557-1.293 3.26-2.09 4.135-2.656C11.207 10.73 9.661 9.6 9.661 9.6c1.01.872 2.32.857 3.134.73-.22.107-.451.219-.695.35-2.674 1.443-5.073 3.815-5.484 7.099v-.026c-.62 3.226-2.002 4.053-2.002 4.053 1.1-.538 1.791-1.967 1.96-2.483.183 2.835 1.574 4.802 3.203 6.696.845.982 1.142 1.936 1.142 1.936s-.165-1.08-.898-1.961c-1.516-1.811-2.959-4.07-3.065-6.68z" fill="#333"/>
    <path d="M19.371 12.666v.652c.226-.273.663-.217.663-.217v.94s-.015.46-.18.661h.945c-.162-.199-.18-.662-.18-.662v-.94s.438-.055.663.218v-.652H19.37z" fill="#333"/>
    <path d="M18.964 8.804c.302.238.477.278.483.282l.118.054v-.614l-1.111-.464c0 .001.01.356.51.742z" fill="#333"/>
    <path d="M21.608 8.804c.502-.386.511-.742.511-.742l-1.111.464v.614l.117-.054c.007-.004.18-.044.483-.282z" fill="#333"/>
    <path d="M23.606 6.306c0-.93-1.576-1.767-3.317-1.767h-.01c-1.74 0-3.317.837-3.317 1.767l.035.23.695 3.964-.698.402-1.806 1.048h.006s-.407.207-.595.335c-.687.475-.833 1.167-.434 1.454.099-.565.548-1.155 1.389-1.155.605 0 1.066.31 1.44.776.095.118.186.243.271.379.105.17.21.32.314.464h-4.65c.34.683.666 1.407.666 2.192v10.23c0 2.476 1.916 3.658 3.989 3.658 1.602 0 1.818-.073 2.702.802.88-.876 1.096-.802 2.7-.802 2.074 0 3.987-1.183 3.987-3.658v-10.23c0-.785.325-1.509.668-2.192h-4.652c.103-.143.208-.294.312-.464.087-.136.176-.261.27-.379.377-.467.836-.776 1.442-.776.84 0 1.288.589 1.388 1.155.4-.287.255-.98-.437-1.454-.185-.128-.591-.335-.591-.335h.006l-1.806-1.048-.695-.402.695-3.965.033-.229zm-5.96.462l2.443.823v3.813l-1.798-.942-.645-3.694zm.505 8.1c.4.396.794.642 1.167.778-.048.191-.112.587.068.98.148.317.415.56.799.724.042.392.29.981.981 1.242-.302.303-.596.588-.716.704l-2.8-.043a.497.497 0 0 1-.22-.204c-.006-.013-.015-.021-.02-.036l.457.074.03.001a.18.18 0 0 0 .028-.358l-.561-.088.623-2.14-.59-1.235-.947.996-.057 2.225-.636-.1c-.099-.019-.193.053-.21.151a.184.184 0 0 0 .152.209l.267.04a2.027 2.027 0 0 0-.165.103l-.055.038-.015.066c-.155.624.196 1.217.574 1.482l-.014.078a.352.352 0 0 0 .064.269.352.352 0 0 0 .293.15.36.36 0 0 0 .347-.278c.141.016.27.02.358.02h.074l3.674.658.062-.04c.293-.204 1.408-1.012 1.774-1.28.1.087.212.165.35.23-.12.395-.127 1.003.342 1.482h-9.362v-5.37c0-.52-.153-1.043-.334-1.525h4.218v-.003zm4.54 4.912c-.371.272-1.327.965-1.673 1.207l-3.339-.596.023-.089c.044-.172.088-.407.091-.683l2.806.045.053-.054c.042-.042.932-.896 1.385-1.387.108.134.243.262.42.375-.062.326-.036.79.234 1.182zm-5.588-.574a.853.853 0 0 0 .32.336 3.826 3.826 0 0 1-.06.605 1.261 1.261 0 0 1-.055.202 2.16 2.16 0 0 1-.674-.104c-.263-.097-.654-.575-.563-1.1.114-.07.376-.216.622-.216.19-.002.319.087.41.277zm-.348-.662l.056-2.137.483-.508.303.63L17 18.58l-.245-.036zm5.906 11.077c-.182 0-.35.003-.502.009l.397-1.23c.063-.17-.252-.388-.38-.58.195.122.702.39.946.496-.026.04-.461 1.305-.461 1.305zm1.247-1.397l-.26 1.345a5.652 5.652 0 0 1-.521.043l.273-1.294c.082-.385-.958-.504-1.47-1.26-.25.281-.723.364-1.196.364-.433 0-.865-.07-1.128-.12a1.247 1.247 0 0 0-.192-.018c-.152 0-.29.046-.386.206l-.075.127-1.416-.332-.352.579c-.05.093-.053.173.027.26l.096.105c-.066.205-.36.514-.36.514l-.21-.26c-.168-.186-.14-.524.034-.838l.561-.942 1.2.172-.188-.422c-.25-.558.131-1.268.172-1.677-.014.124-.127.15-.261.15-.121 0-.256-.022-.346-.022-.035 0-.065.003-.082.015l-.325.196-.256-.224c-.03-.044-.041-.145.035-.22l.593-.661-.7-.813.98.49.3-.36c.082.08.047.29.047.29.306.007 1.165.479 1.21 1.58.004.033.004.07.004.107l.022.036c.061.083.228.295.44.315l1.357.133h.006c.149 0 .445-.174.824-.174.206 0 .437.053.683.207 0 0 .123-.097.323-.107.015-.002.032-.002.047-.002.609 0 .86.546 1.187 1 .245.345.573.858.573.858-.121.143-.233.222-.422.222a.947.947 0 0 1-.174-.017c-.652-.119-.747-1.452-1.118-1.557a.203.203 0 0 0-.06-.008c-.12 0-.172.105-.172.105.17.454.07.638.253.988.137.26.38.474.48.575 0 .003-.028.199-.057.346zm-7.285-1.272l.063.155c-.041.136-.512.329-.512.329l-.101-.22a.73.73 0 0 1 .242-.875l.762-.461.807.17c-.015.255.138.445.138.445l-.846-.161-.507.348c-.085.059-.091.169-.046.27zm7.413 2.543l.232-1.203.038-.223a1.278 1.278 0 0 0 .45.088c.356 0 .562-.186.7-.344l.179-.207-.146-.226c-.013-.023-.335-.53-.584-.876a4.643 4.643 0 0 1-.143-.21c-.282-.419-.635-.945-1.344-.945l-.064.002a1.04 1.04 0 0 0-.297.06 1.613 1.613 0 0 0-.69-.157c-.293 0-.54.08-.704.136-.047.013-.09.028-.123.034l-1.325-.13c-.017-.002-.071-.034-.137-.112v-.006l.287-.115c-.08-.948-.997-1.532-1.508-1.73a.537.537 0 0 0-.149-.266l-.285-.269-.25.299-.123.152-1.855-.757 1.207 1.505-.477.716c-.174.184.018.368.018.368l.492.336.51-.188c.018 0 .033.004.05.006-.024.077-.056.378-.077.463l-.885-.174-.93.522a1.089 1.089 0 0 0-.366 1.32l.103.226.148.316.324-.134a.03.03 0 0 0 .012-.006c-.117.371-.07.724.14.956l.197.247.263.33.288-.307c.085-.085.36-.39.445-.653l.062-.2-.141-.154-.023-.027.158-.26 1.154.27.26.059.138-.226.076-.124c.014-.026.018-.03.071-.03.041 0 .082.004.126.014.436.08.838.122 1.194.122.346 0 .553-.014.8-.095l.642.726-.38 1.164-.016.071c-.72.058-1.07.214-1.493.635-.615-.606-1.05-.67-2.703-.67-1.977 0-3.317-1.151-3.317-2.99v-4.499h12.036l.003 4.498c.002 1.493-.88 2.533-2.268 2.872zm2.602-14.627c-.184.482-.337 1.006-.337 1.526l.002 3.356c-.706-.117-.79-.873-.792-.906l-.014-.154-.152-.013a1.074 1.074 0 0 1-.681-.325c-.346-.343-.348-.901-.346-.906-.005.029-.38.552.056 1.124.184.24.45.389.794.447.08.42.394 1.01 1.135 1.101v1.644H24.22c-.96-.531-.554-1.466-.534-1.505l.082-.178-.184-.07c-1.04-.382-.754-1.414-.739-1.457l.043-.151-.142-.067c-.858-.395-.742-1.46-.73-1.504-.265.212-.36.646-.178 1.072-.1.111-.231.247-.375.395a1.16 1.16 0 0 1-.917-1.075l-.001-.126-.117-.045c-.348-.128-.586-.32-.703-.577-.132-.285-.085-.584-.048-.727a2.953 2.953 0 0 0 .607.063H20.298c.104 0 .205-.006.305-.016.554-.055 1.175-.291 1.821-.928h4.214v.002zm-3.244-3.393l.822.475h.012l.207.12c-.464.127-.82.358-1.117.661l-.032.032a3.71 3.71 0 0 0-.2.23l-.038.049a3.826 3.826 0 0 0-.211.295 5.79 5.79 0 0 0-.199.322c-.586 1.002-1.52 1.6-2.352 1.602-.83-.001-1.765-.6-2.35-1.602a6.49 6.49 0 0 0-.196-.317l-.038-.056a6.138 6.138 0 0 0-.218-.297 5.727 5.727 0 0 0-.195-.225c-.013-.01-.022-.024-.036-.036a2.414 2.414 0 0 0-1.118-.659l.21-.119h.008l.823-.475.845-.48 2.258 1.22.004-.004.006.005 2.258-1.222.847.481zm-1.114-1.012l-1.8.943V7.59l2.442-.823-.642 3.695zm-1.995-3.291L17.608 6.12c.228-.535 1.278-.99 2.677-.992 1.4.001 2.45.457 2.676.992l-2.676 1.05z" fill="#333"/>
</svg>
